<svg width="253" height="259" viewBox="0 0 253 259" fill="none" xmlns="http://www.w3.org/2000/svg">
<ellipse cx="142.5" cy="139.5" rx="110.5" ry="103.5" fill="#A5B1C4"/>
<path d="M131.771 147.578L137.022 145.043L146.709 143.412L151.236 143.321C152.036 143.728 153.735 144.552 154.133 144.588C154.532 144.624 155.054 147.349 155.265 148.707L141.097 149.931L131.998 150.611L131.771 147.578Z" fill="#E5E7F4" stroke="#E5E7F4" stroke-linejoin="round"/>
<path d="M135.8 145.769C135.187 140.638 134.011 137.751 133.5 136.949C137.845 136.147 146.996 134.864 148.837 136.147C150.677 137.43 150.626 143.097 150.37 145.769C145.769 147.908 136.414 150.901 135.8 145.769Z" fill="#C4C8F2"/>
<path d="M204.387 103.103C205.398 106.77 209.326 115.003 216.952 118.603" stroke="#6D72E6"/>
<path d="M173.19 34.603C174.056 20.603 184.282 -5.69698 218.252 1.10302C252.222 7.90302 249.737 43.9363 244.249 61.103C238.843 86.5353 212.925 117.31 224.02 122.577C224.591 122.778 225.127 122.954 225.618 123.103C225.017 122.974 224.486 122.798 224.02 122.577C218.203 120.523 208.8 115.795 207.853 109.603C202.307 105.203 201.787 77.7697 202.22 64.603L173.19 34.603Z" fill="#6D72E6"/>
<path d="M186.622 46.603C152.652 3.40302 103.864 26.603 93.0316 41.603L91.7317 75.603L86.5323 88.603L93.0316 90.103C104.442 106.77 135.667 137.903 169.29 129.103C211.319 118.103 211.529 87.3234 208.286 73.603C204.387 57.103 200.487 49.103 186.622 46.603Z" fill="#7B7FE7"/>
<path d="M182.426 93.1364C177.779 85.0673 172.514 89.9222 170.462 93.3582C168.431 98.2806 165.141 109.258 168.227 113.788C171.313 118.318 176.23 115.551 178.302 113.601C181.614 110.142 187.074 101.205 182.426 93.1364Z" fill="#D0D4FB"/>
<path d="M149.526 138.284C173.732 133.963 174.372 92.678 171.666 72.5754C170.19 70.1751 166.647 63.3942 164.286 55.4732C160.153 43.2316 126.648 43.7717 110.412 45.5719C94.9136 51.8727 90.4856 86.9773 92.6996 104.98C94.4534 119.24 100.326 128.383 104.508 131.083C109.428 135.284 125.319 142.604 149.526 138.284Z" fill="#D0D4FB"/>
<path d="M92.165 89.103C75.1801 89.903 124.662 71.103 136.794 44.603C137.66 40.9363 136.534 33.003 125.095 30.603C113.656 28.203 100.398 34.603 95.198 38.103C67.9009 57.603 77 85.603 86.099 89.603C87.2669 90.1164 90.4319 90.7697 92.165 90.603V89.103Z" fill="#7B7FE7"/>
<path d="M185.322 98.603C146.759 98.103 122.928 64.103 122.495 58.103C111.23 56.9364 97.4511 50.603 132.461 34.603C150.17 26.5096 165.391 32.2673 181.532 49.103C190.16 58.103 208.279 98.9007 185.322 98.603Z" fill="#7B7FE7"/>
<path d="M136 147.103C136.8 150.703 124 153.936 117.5 155.103C117.5 160.603 118.3 173.403 121.5 180.603C125.5 189.603 117.5 236.603 117.5 246.103C117.5 253.703 165.167 245.27 189 240.103C184.833 228.27 175.5 203.703 171.5 200.103C167.5 196.503 171.167 168.603 173.5 155.103C167.167 153.103 153.9 148.203 151.5 144.603C144 147.103 140.5 147.103 136 147.103Z" fill="#2C1E36"/>
<ellipse cx="101.5" cy="100.103" rx="2" ry="3.5" fill="black"/>
<ellipse cx="101.5" cy="100.103" rx="2" ry="3.5" fill="black"/>
<ellipse cx="101.5" cy="100.103" rx="2" ry="3.5" fill="black"/>
<ellipse cx="101.5" cy="100.103" rx="2" ry="3.5" fill="black"/>
<ellipse cx="101.5" cy="100.103" rx="2" ry="3.5" fill="black"/>
<ellipse cx="133.5" cy="101.103" rx="2" ry="3.5" fill="black"/>
<ellipse cx="133.5" cy="101.103" rx="2" ry="3.5" fill="black"/>
<ellipse cx="133.5" cy="101.103" rx="2" ry="3.5" fill="black"/>
<ellipse cx="133.5" cy="101.103" rx="2" ry="3.5" fill="black"/>
<ellipse cx="133.5" cy="101.103" rx="2" ry="3.5" fill="black"/>
<path d="M111.5 99.103C111.5 107.824 105.532 114.603 98.5 114.603C91.468 114.603 85.5 107.824 85.5 99.103C85.5 90.3823 91.468 83.603 98.5 83.603C105.532 83.603 111.5 90.3823 111.5 99.103Z" fill="white" fill-opacity="0.3" stroke="#3E23E4" stroke-width="2"/>
<path d="M147.5 100.103C147.5 108.824 141.532 115.603 134.5 115.603C127.468 115.603 121.5 108.824 121.5 100.103C121.5 91.3823 127.468 84.603 134.5 84.603C141.532 84.603 147.5 91.3823 147.5 100.103Z" fill="white" fill-opacity="0.3" stroke="#3E23E4" stroke-width="2"/>
<path d="M111.5 100.603C113.087 99.0938 117.309 96.9808 121.5 100.603" stroke="#3E23E4" stroke-width="2"/>
<path d="M219.512 226.78L217.5 226.103C214.833 225.603 208.5 225.003 204.5 226.603C199.5 228.603 200 240.103 204 243.103C208 244.103 220.012 231.78 219.512 226.78Z" fill="#E6E8F5" stroke="#E6E8F5" stroke-linejoin="round"/>
<path d="M69 227.603C64.6 228.003 63.1667 213.436 63 206.103L74 206.603C74.1667 213.436 73.4 227.203 69 227.603Z" fill="#E5E7F4" stroke="#E5E7F4" stroke-linejoin="round"/>
<path d="M117.5 162.103C112 163.603 107.446 167.187 92 191.103C76.5 215.103 59.5 217.103 51 211.103C39.784 203.186 47.5 177.103 37 163.103" stroke="#D0D4FB" stroke-width="15" stroke-linecap="round"/>
<path d="M170.5 161.603C176.786 163.338 176.611 172.605 191 202.103C201 222.603 207 234.103 227 242.603" stroke="#D0D4FB" stroke-width="15" stroke-linecap="round"/>
<path d="M155 146.603C156.6 145.403 152.667 144.103 150.5 143.603C152.667 143.936 157 145.003 157 146.603C157 148.203 162.667 150.603 165.5 151.603C168.667 152.103 175.9 154.003 179.5 157.603C184 159.103 191 181.103 196.5 193.603C202 206.103 214 219.103 220 226.603C209.5 226.603 206 238.603 204 243.603C200.5 242.603 191.5 217.603 186.5 210.603C182.5 205.003 174.5 184.603 171 175.103C170 181.436 169.2 195.203 172 199.603C174.8 204.003 189.333 230.77 196.5 243.603C193.167 246.936 184.2 253.203 175 251.603C165.8 250.003 154.833 216.936 150.5 200.603C148 193.603 144 159.603 147 156.103C148.979 153.794 153 148.103 155 146.603Z" fill="#EFF1FE"/>
<path d="M121 154.603C125 154.203 132 151.103 135 149.603C140 149.603 138 255.103 122 257.603C106 260.103 101 252.603 102 252.103C103 251.603 110.5 240.603 112.5 235.603C115.5 231.103 122 205.603 122 198.603C122 193.103 122 184.603 121 179.603C121 177.103 119 170.603 118.5 170.103C118 169.603 115.5 172.603 115 173.103C114.5 173.603 108.5 181.103 106.5 184.603C105 186.603 92 207.603 86.5 214.103C82.1 219.303 73 225.27 69 227.603C69.8333 226.603 71.5 222.503 71.5 214.103C71.5 203.603 62.5 206.103 63.5 205.603C64.5 205.103 67 205.603 66.5 204.103C66 202.603 66 203.603 68.5 202.603C71 201.603 69 201.103 69.5 199.603C70 198.103 71 200.103 72.5 200.603C74 201.103 74.5 199.103 75 196.103C75.5 193.103 75 192.603 80.5 193.603C84.5 190.603 90.5 180.103 100 167.103C109.5 154.103 116 155.103 121 154.603Z" fill="#EFF1FE" stroke="#EFF1FE" stroke-linejoin="round"/>
<path d="M131.5 151.603L136 148.603L140 157.603L137 157.103L131.5 151.603Z" fill="#2C1E36" stroke="#2C1E36" stroke-linejoin="round"/>
<path d="M116.5 153.103C119.7 150.303 130.5 147.436 135.5 145.603L133 148.103C133.333 150.77 137.1 155.503 137.5 157.103C138 159.103 138 180.603 138 184.603C138 187.469 136.786 200.305 136 208.103C135.908 209.013 135.57 209.854 135.5 210.603L135 209.603C135.167 207.936 135.2 202.403 134 193.603C134.5 188.103 131.5 176.603 121 166.103C124.5 162.103 125.5 162.103 129.5 158.603C129 157.603 124.5 156.103 116.5 153.103Z" fill="#E6E8F5" stroke="#E6E8F5" stroke-linejoin="round"/>
<path d="M170.5 150.603C167.7 147.403 156.333 143.936 151 142.603V144.603C152.5 145.436 155.3 147.203 154.5 147.603C153.5 148.103 146.5 156.103 146 157.103C145.5 158.103 146 165.103 146.5 173.603C146.5 180.603 150 199.603 153.5 209.603C153.5 209.103 152.5 206.103 152.5 204.103C152 203.103 151.333 197.436 151 194.603C151 190.27 154 178.503 166 166.103C166 164.103 161.333 159.603 159 157.603C159.333 157.436 162.1 155.803 170.5 150.603Z" fill="#E6E8F5" stroke="#E6E8F5" stroke-linejoin="round"/>
<path d="M29.442 173.559C29.9068 173.907 29.5047 174.634 28.9628 174.425L15.2 169.129C14.9168 169.02 14.7951 168.686 14.942 168.421L16.9005 164.878C17.0473 164.613 17.3949 164.538 17.6378 164.72L29.442 173.559Z" fill="#FFE39A"/>
<path d="M26.6483 176.976C27.2482 176.957 27.3666 177.817 26.7838 177.961L9.01718 182.336C8.72896 182.407 8.44274 182.212 8.4023 181.918L7.88093 178.127C7.84049 177.833 8.06364 177.569 8.36032 177.56L26.6483 176.976Z" fill="#FFE39A"/>
</svg>
