<svg width="275" height="69" viewBox="0 0 275 69" fill="none" xmlns="http://www.w3.org/2000/svg">
<g filter="url(#filter0_d_21_25)">
<rect x="10" y="6" width="255" height="49" rx="8" fill="url(#paint0_linear_21_25)"/>
</g>
<path d="M122.102 36H115.898V24.7969H117.758V34.4297H122.102V36ZM127.07 36.1875C125.836 36.1875 124.849 35.8151 124.109 35.0703C123.375 34.3203 123.008 33.3281 123.008 32.0938C123.008 30.75 123.391 29.7005 124.156 28.9453C124.927 28.1901 125.964 27.8125 127.266 27.8125C128.516 27.8125 129.49 28.1797 130.188 28.9141C130.885 29.6484 131.234 30.6667 131.234 31.9688C131.234 33.2448 130.857 34.2682 130.102 35.0391C129.352 35.8047 128.341 36.1875 127.07 36.1875ZM127.156 29.2578C126.448 29.2578 125.888 29.5052 125.477 30C125.065 30.4948 124.859 31.1771 124.859 32.0469C124.859 32.8854 125.068 33.5469 125.484 34.0312C125.901 34.5104 126.458 34.75 127.156 34.75C127.87 34.75 128.417 34.513 128.797 34.0391C129.182 33.5651 129.375 32.8906 129.375 32.0156C129.375 31.1354 129.182 30.4557 128.797 29.9766C128.417 29.4974 127.87 29.2578 127.156 29.2578ZM140.367 35.3594C140.367 38.2969 138.891 39.7656 135.938 39.7656C134.896 39.7656 133.987 39.5911 133.211 39.2422V37.5859C134.086 38.0859 134.917 38.3359 135.703 38.3359C137.604 38.3359 138.555 37.401 138.555 35.5312V34.6562H138.523C137.924 35.6771 137.023 36.1875 135.82 36.1875C134.846 36.1875 134.06 35.8333 133.461 35.125C132.867 34.4115 132.57 33.4557 132.57 32.2578C132.57 30.8984 132.891 29.8177 133.531 29.0156C134.172 28.2135 135.052 27.8125 136.172 27.8125C137.229 27.8125 138.013 28.2448 138.523 29.1094H138.555V28H140.367V35.3594ZM138.57 32.3359V31.2969C138.57 30.7344 138.383 30.2552 138.008 29.8594C137.638 29.4583 137.174 29.2578 136.617 29.2578C135.93 29.2578 135.391 29.513 135 30.0234C134.615 30.5286 134.422 31.237 134.422 32.1484C134.422 32.9349 134.607 33.5651 134.977 34.0391C135.352 34.5078 135.846 34.7422 136.461 34.7422C137.086 34.7422 137.594 34.5182 137.984 34.0703C138.375 33.6172 138.57 33.0391 138.57 32.3359ZM148.047 26.3203C147.75 26.3203 147.495 26.224 147.281 26.0312C147.073 25.8385 146.969 25.5938 146.969 25.2969C146.969 25 147.073 24.7526 147.281 24.5547C147.495 24.3568 147.75 24.2578 148.047 24.2578C148.354 24.2578 148.615 24.3568 148.828 24.5547C149.042 24.7526 149.148 25 149.148 25.2969C149.148 25.5781 149.042 25.8203 148.828 26.0234C148.615 26.2214 148.354 26.3203 148.047 26.3203ZM148.945 36H147.133V28H148.945V36ZM158.445 36H156.633V31.4922C156.633 29.9974 156.104 29.25 155.047 29.25C154.495 29.25 154.039 29.4583 153.68 29.875C153.32 30.2865 153.141 30.8073 153.141 31.4375V36H151.32V28H153.141V29.3281H153.172C153.771 28.3177 154.635 27.8125 155.766 27.8125C156.635 27.8125 157.299 28.0964 157.758 28.6641C158.216 29.2266 158.445 30.0417 158.445 31.1094V36Z" fill="white"/>
<defs>
<filter id="filter0_d_21_25" x="0" y="0" width="275" height="69" filterUnits="userSpaceOnUse" color-interpolation-filters="sRGB">
<feFlood flood-opacity="0" result="BackgroundImageFix"/>
<feColorMatrix in="SourceAlpha" type="matrix" values="0 0 0 0 0 0 0 0 0 0 0 0 0 0 0 0 0 0 127 0" result="hardAlpha"/>
<feOffset dy="4"/>
<feGaussianBlur stdDeviation="5"/>
<feComposite in2="hardAlpha" operator="out"/>
<feColorMatrix type="matrix" values="0 0 0 0 0 0 0 0 0 0 0 0 0 0 0 0 0 0 0.2 0"/>
<feBlend mode="normal" in2="BackgroundImageFix" result="effect1_dropShadow_21_25"/>
<feBlend mode="normal" in="SourceGraphic" in2="effect1_dropShadow_21_25" result="shape"/>
</filter>
<linearGradient id="paint0_linear_21_25" x1="137.5" y1="6" x2="137.5" y2="55" gradientUnits="userSpaceOnUse">
<stop stop-color="#BBC5FC"/>
<stop offset="1" stop-color="#9DABF8"/>
</linearGradient>
</defs>
</svg>
