<svg width="153" height="114" viewBox="0 0 153 114" fill="none" xmlns="http://www.w3.org/2000/svg">
<path d="M75.4769 24.964C54.9436 -34.9727 -50.7592 25.8326 75.4768 113.853C201.713 25.8326 96.0101 -34.9728 75.4769 24.964Z" fill="#F97070"/>
<path d="M145.689 17.1114C118.897 -10.2853 -9.38221 46.4056 4.25969 80.1233C17.9016 113.841 177.473 49.6125 145.689 17.1114Z" stroke="#7D68FB" stroke-width="6" stroke-linecap="round"/>
<path d="M75.6881 25.5941C58.7352 -26.0879 -20.5995 9.77096 32.6604 75.6646L75.6881 25.5941Z" fill="#F97070"/>
<path d="M128.872 11.5C114.647 -4.8635 85.1109 -3.63191 75.524 25.5941L130 13L129.436 12.25L128.872 11.5Z" fill="#F97070"/>
<path d="M140 33C138.167 35.6667 132.2 42.1 123 46.5" stroke="#D3E9F2" stroke-width="5" stroke-linecap="round"/>
<path d="M34.438 97.7032C42.1119 97.6827 62.3575 95.3133 81.9489 86" stroke="#E1B7F5" stroke-width="5" stroke-linecap="round"/>
<path d="M18.8108 61C14.8108 63.8333 8.8108 70.5 11.8108 76.5" stroke="#9EE0E9" stroke-width="5" stroke-linecap="round"/>
<path d="M29.5 17.5C27.2778 12.5 42 5.50001 45.5 10C48.6111 14 31.5 22 29.5 17.5Z" fill="#FBEDF9" stroke="#FBEDF9" stroke-linecap="round" stroke-linejoin="round"/>
</svg>
