<svg width="360" height="800" viewBox="0 0 360 800" fill="none" xmlns="http://www.w3.org/2000/svg">
<g clip-path="url(#clip0_2_2)">
<rect width="360" height="800" fill="url(#paint0_linear_2_2)"/>
<path d="M-30 214.5H215L222.5 205.5L228.5 220.5L234.5 209.5L241 263.5L252 157L257 225L264.5 205.5L269 220.5L273.5 214.5H307.5L314.5 205.5L319 220.5L327 209.5L330.5 263.5L348 157L354 225L360.5 205.5L365 220.5" stroke="url(#paint1_linear_2_2)" stroke-opacity="0.32" stroke-width="2" stroke-linecap="round" stroke-linejoin="round"/>
<path d="M76.0234 177.191L67.5801 208H61.8008L55.9355 186.451C55.6921 185.535 55.5417 184.532 55.4844 183.443H55.3984C55.3268 184.46 55.1549 185.449 54.8828 186.408L48.9961 208H43.0879L34.4727 177.191H40.0801L45.666 199.75C45.8952 200.695 46.0384 201.684 46.0957 202.715H46.2031C46.2604 201.984 46.4609 200.996 46.8047 199.75L53.1211 177.191H58.3848L64.2285 199.922C64.429 200.695 64.5794 201.612 64.6797 202.672H64.7656C64.8086 201.956 64.9733 201.01 65.2598 199.836L70.7383 177.191H76.0234ZM97.25 198.354H82.2539C82.3112 200.387 82.9342 201.956 84.123 203.059C85.3262 204.161 86.9733 204.713 89.0645 204.713C91.4134 204.713 93.569 204.011 95.5312 202.607V206.625C93.526 207.885 90.8763 208.516 87.582 208.516C84.3451 208.516 81.8027 207.52 79.9551 205.529C78.1217 203.524 77.2051 200.71 77.2051 197.086C77.2051 193.663 78.2148 190.877 80.2344 188.729C82.2682 186.566 84.7891 185.484 87.7969 185.484C90.8047 185.484 93.1322 186.451 94.7793 188.385C96.4264 190.318 97.25 193.004 97.25 196.441V198.354ZM92.4375 194.83C92.4232 193.04 92.0007 191.65 91.1699 190.662C90.3392 189.66 89.1934 189.158 87.7324 189.158C86.3001 189.158 85.0827 189.681 84.0801 190.727C83.0918 191.772 82.4831 193.14 82.2539 194.83H92.4375ZM107.004 208H101.998V175.43H107.004V208ZM129.262 206.99C127.5 208.007 125.416 208.516 123.01 208.516C119.744 208.516 117.109 207.499 115.104 205.465C113.098 203.417 112.096 200.767 112.096 197.516C112.096 193.892 113.17 190.984 115.318 188.793C117.481 186.587 120.367 185.484 123.977 185.484C125.982 185.484 127.751 185.835 129.283 186.537V191.178C127.751 190.032 126.118 189.459 124.385 189.459C122.279 189.459 120.553 190.175 119.207 191.607C117.861 193.025 117.188 194.887 117.188 197.193C117.188 199.471 117.818 201.268 119.078 202.586C120.353 203.904 122.057 204.562 124.191 204.562C125.982 204.562 127.672 203.925 129.262 202.65V206.99ZM143.979 208.516C140.584 208.516 137.87 207.492 135.836 205.443C133.816 203.381 132.807 200.652 132.807 197.258C132.807 193.562 133.859 190.676 135.965 188.6C138.085 186.523 140.935 185.484 144.516 185.484C147.953 185.484 150.632 186.494 152.551 188.514C154.47 190.533 155.43 193.333 155.43 196.914C155.43 200.423 154.391 203.238 152.314 205.357C150.252 207.463 147.473 208.516 143.979 208.516ZM144.215 189.459C142.267 189.459 140.727 190.139 139.596 191.5C138.464 192.861 137.898 194.737 137.898 197.129C137.898 199.435 138.471 201.254 139.617 202.586C140.763 203.904 142.296 204.562 144.215 204.562C146.177 204.562 147.681 203.911 148.727 202.607C149.786 201.304 150.316 199.449 150.316 197.043C150.316 194.622 149.786 192.753 148.727 191.436C147.681 190.118 146.177 189.459 144.215 189.459ZM193.414 208H188.43V196.012C188.43 193.706 188.1 192.037 187.441 191.006C186.797 189.975 185.701 189.459 184.154 189.459C182.851 189.459 181.741 190.111 180.824 191.414C179.922 192.717 179.471 194.279 179.471 196.098V208H174.465V195.604C174.465 191.507 173.018 189.459 170.125 189.459C168.779 189.459 167.669 190.075 166.795 191.307C165.936 192.538 165.506 194.135 165.506 196.098V208H160.521V186H165.506V189.48H165.592C167.182 186.816 169.495 185.484 172.531 185.484C174.049 185.484 175.374 185.907 176.506 186.752C177.652 187.583 178.432 188.678 178.848 190.039C180.48 187.003 182.915 185.484 186.152 185.484C190.993 185.484 193.414 188.471 193.414 194.443V208ZM218.121 198.354H203.125C203.182 200.387 203.805 201.956 204.994 203.059C206.197 204.161 207.844 204.713 209.936 204.713C212.285 204.713 214.44 204.011 216.402 202.607V206.625C214.397 207.885 211.747 208.516 208.453 208.516C205.216 208.516 202.674 207.52 200.826 205.529C198.993 203.524 198.076 200.71 198.076 197.086C198.076 193.663 199.086 190.877 201.105 188.729C203.139 186.566 205.66 185.484 208.668 185.484C211.676 185.484 214.003 186.451 215.65 188.385C217.298 190.318 218.121 193.004 218.121 196.441V198.354ZM213.309 194.83C213.294 193.04 212.872 191.65 212.041 190.662C211.21 189.66 210.064 189.158 208.604 189.158C207.171 189.158 205.954 189.681 204.951 190.727C203.963 191.772 203.354 193.14 203.125 194.83H213.309Z" fill="black"/>
<path d="M38.8271 233.604V232.25C38.9821 232.387 39.1667 232.51 39.3809 232.619C39.5996 232.729 39.8275 232.822 40.0645 232.899C40.306 232.972 40.5475 233.029 40.7891 233.07C41.0306 233.111 41.2539 233.132 41.459 233.132C42.1654 233.132 42.6917 233.002 43.0381 232.742C43.389 232.478 43.5645 232.1 43.5645 231.607C43.5645 231.343 43.5052 231.113 43.3867 230.917C43.2728 230.721 43.1133 230.543 42.9082 230.384C42.7031 230.22 42.4593 230.065 42.1768 229.919C41.8988 229.769 41.598 229.611 41.2744 229.447C40.9326 229.274 40.6136 229.099 40.3174 228.921C40.0212 228.743 39.7637 228.547 39.5449 228.333C39.3262 228.119 39.153 227.877 39.0254 227.608C38.9023 227.335 38.8408 227.016 38.8408 226.651C38.8408 226.205 38.9388 225.817 39.1348 225.489C39.3307 225.157 39.5882 224.883 39.9072 224.669C40.2262 224.455 40.5885 224.295 40.9941 224.19C41.4043 224.086 41.8213 224.033 42.2451 224.033C43.2113 224.033 43.9154 224.149 44.3574 224.382V225.674C43.7786 225.273 43.0358 225.072 42.1289 225.072C41.8783 225.072 41.6276 225.1 41.377 225.154C41.1263 225.204 40.903 225.289 40.707 225.407C40.5111 225.526 40.3516 225.678 40.2285 225.865C40.1055 226.052 40.0439 226.28 40.0439 226.549C40.0439 226.799 40.0895 227.016 40.1807 227.198C40.2764 227.381 40.4154 227.547 40.5977 227.697C40.7799 227.848 41.001 227.993 41.2607 228.135C41.5251 228.276 41.8281 228.431 42.1699 228.6C42.5208 228.773 42.8535 228.955 43.168 229.146C43.4824 229.338 43.7581 229.55 43.9951 229.782C44.2321 230.015 44.4189 230.272 44.5557 230.555C44.6969 230.837 44.7676 231.161 44.7676 231.525C44.7676 232.008 44.6719 232.419 44.4805 232.756C44.2936 233.089 44.0384 233.36 43.7148 233.569C43.3958 233.779 43.0267 233.929 42.6074 234.021C42.1882 234.116 41.7461 234.164 41.2812 234.164C41.1263 234.164 40.9349 234.15 40.707 234.123C40.4792 234.1 40.2467 234.064 40.0098 234.014C39.7728 233.968 39.5472 233.911 39.333 233.843C39.1234 233.77 38.9548 233.69 38.8271 233.604ZM47.1465 225.223C46.946 225.223 46.7751 225.154 46.6338 225.018C46.4925 224.881 46.4219 224.708 46.4219 224.498C46.4219 224.288 46.4925 224.115 46.6338 223.979C46.7751 223.837 46.946 223.767 47.1465 223.767C47.3516 223.767 47.5247 223.837 47.666 223.979C47.8118 224.115 47.8848 224.288 47.8848 224.498C47.8848 224.699 47.8118 224.869 47.666 225.011C47.5247 225.152 47.3516 225.223 47.1465 225.223ZM47.6934 234H46.5723V227H47.6934V234ZM55.9375 233.439C55.9375 236.01 54.707 237.295 52.2461 237.295C51.3802 237.295 50.6237 237.131 49.9766 236.803V235.682C50.765 236.119 51.5169 236.338 52.2324 236.338C53.9551 236.338 54.8164 235.422 54.8164 233.59V232.824H54.7891C54.2559 233.717 53.4538 234.164 52.3828 234.164C51.5124 234.164 50.8105 233.854 50.2773 233.234C49.7487 232.61 49.4844 231.774 49.4844 230.726C49.4844 229.536 49.7692 228.59 50.3389 227.889C50.9131 227.187 51.6969 226.836 52.6904 226.836C53.6338 226.836 54.3333 227.214 54.7891 227.971H54.8164V227H55.9375V233.439ZM54.8164 230.835V229.803C54.8164 229.247 54.6273 228.771 54.249 228.374C53.8753 227.978 53.4082 227.779 52.8477 227.779C52.1549 227.779 51.6126 228.032 51.2207 228.538C50.8288 229.039 50.6328 229.743 50.6328 230.65C50.6328 231.43 50.8197 232.054 51.1934 232.523C51.5716 232.988 52.0706 233.221 52.6904 233.221C53.3193 233.221 53.8298 232.997 54.2217 232.551C54.6182 232.104 54.8164 231.532 54.8164 230.835ZM64.0176 234H62.8965V230.008C62.8965 228.522 62.3542 227.779 61.2695 227.779C60.709 227.779 60.2441 227.991 59.875 228.415C59.5104 228.834 59.3281 229.365 59.3281 230.008V234H58.207V227H59.3281V228.162H59.3555C59.8841 227.278 60.6497 226.836 61.6523 226.836C62.418 226.836 63.0036 227.084 63.4092 227.581C63.8148 228.073 64.0176 228.786 64.0176 229.721V234ZM70.5527 225.223C70.3522 225.223 70.1813 225.154 70.04 225.018C69.8988 224.881 69.8281 224.708 69.8281 224.498C69.8281 224.288 69.8988 224.115 70.04 223.979C70.1813 223.837 70.3522 223.767 70.5527 223.767C70.7578 223.767 70.931 223.837 71.0723 223.979C71.2181 224.115 71.291 224.288 71.291 224.498C71.291 224.699 71.2181 224.869 71.0723 225.011C70.931 225.152 70.7578 225.223 70.5527 225.223ZM71.0996 234H69.9785V227H71.0996V234ZM79.1797 234H78.0586V230.008C78.0586 228.522 77.5163 227.779 76.4316 227.779C75.8711 227.779 75.4062 227.991 75.0371 228.415C74.6725 228.834 74.4902 229.365 74.4902 230.008V234H73.3691V227H74.4902V228.162H74.5176C75.0462 227.278 75.8118 226.836 76.8145 226.836C77.5801 226.836 78.1657 227.084 78.5713 227.581C78.9769 228.073 79.1797 228.786 79.1797 229.721V234ZM88.3877 233.932C88.1234 234.077 87.7747 234.15 87.3418 234.15C86.1159 234.15 85.5029 233.467 85.5029 232.1V227.957H84.2998V227H85.5029V225.291L86.624 224.929V227H88.3877V227.957H86.624V231.901C86.624 232.371 86.7038 232.706 86.8633 232.906C87.0228 233.107 87.2871 233.207 87.6562 233.207C87.9388 233.207 88.1826 233.13 88.3877 232.975V233.932ZM92.8105 234.164C91.776 234.164 90.9489 233.838 90.3291 233.187C89.7139 232.53 89.4062 231.662 89.4062 230.582C89.4062 229.406 89.7275 228.488 90.3701 227.827C91.0127 227.166 91.8809 226.836 92.9746 226.836C94.0182 226.836 94.8317 227.157 95.415 227.8C96.0029 228.442 96.2969 229.333 96.2969 230.473C96.2969 231.589 95.9801 232.485 95.3467 233.159C94.7178 233.829 93.8724 234.164 92.8105 234.164ZM92.8926 227.779C92.1725 227.779 91.6029 228.025 91.1836 228.518C90.7643 229.005 90.5547 229.68 90.5547 230.541C90.5547 231.37 90.7666 232.024 91.1904 232.503C91.6143 232.981 92.1816 233.221 92.8926 233.221C93.6172 233.221 94.1732 232.986 94.5605 232.517C94.9525 232.047 95.1484 231.38 95.1484 230.514C95.1484 229.639 94.9525 228.964 94.5605 228.49C94.1732 228.016 93.6172 227.779 92.8926 227.779ZM107.501 227L104.281 235.121C103.707 236.57 102.9 237.295 101.861 237.295C101.57 237.295 101.326 237.265 101.13 237.206V236.201C101.371 236.283 101.592 236.324 101.793 236.324C102.358 236.324 102.782 235.987 103.064 235.312L103.625 233.986L100.891 227H102.135L104.028 232.387C104.051 232.455 104.099 232.633 104.172 232.92H104.213C104.236 232.811 104.281 232.637 104.35 232.4L106.339 227H107.501ZM111.637 234.164C110.602 234.164 109.775 233.838 109.155 233.187C108.54 232.53 108.232 231.662 108.232 230.582C108.232 229.406 108.554 228.488 109.196 227.827C109.839 227.166 110.707 226.836 111.801 226.836C112.844 226.836 113.658 227.157 114.241 227.8C114.829 228.442 115.123 229.333 115.123 230.473C115.123 231.589 114.806 232.485 114.173 233.159C113.544 233.829 112.699 234.164 111.637 234.164ZM111.719 227.779C110.999 227.779 110.429 228.025 110.01 228.518C109.59 229.005 109.381 229.68 109.381 230.541C109.381 231.37 109.593 232.024 110.017 232.503C110.44 232.981 111.008 233.221 111.719 233.221C112.443 233.221 112.999 232.986 113.387 232.517C113.779 232.047 113.975 231.38 113.975 230.514C113.975 229.639 113.779 228.964 113.387 228.49C112.999 228.016 112.443 227.779 111.719 227.779ZM122.574 234H121.453V232.893H121.426C120.961 233.74 120.241 234.164 119.266 234.164C117.598 234.164 116.764 233.171 116.764 231.184V227H117.878V231.006C117.878 232.482 118.443 233.221 119.573 233.221C120.12 233.221 120.569 233.02 120.92 232.619C121.275 232.214 121.453 231.685 121.453 231.033V227H122.574V234ZM128.494 228.135C128.298 227.984 128.016 227.909 127.646 227.909C127.168 227.909 126.767 228.135 126.443 228.586C126.124 229.037 125.965 229.652 125.965 230.432V234H124.844V227H125.965V228.442H125.992C126.152 227.95 126.396 227.567 126.724 227.294C127.052 227.016 127.419 226.877 127.824 226.877C128.116 226.877 128.339 226.909 128.494 226.973V228.135ZM138.563 234H137.442V232.906H137.415C136.927 233.745 136.21 234.164 135.262 234.164C134.564 234.164 134.018 233.979 133.621 233.61C133.229 233.241 133.033 232.751 133.033 232.141C133.033 230.833 133.803 230.072 135.344 229.857L137.442 229.563C137.442 228.374 136.962 227.779 136 227.779C135.157 227.779 134.396 228.066 133.717 228.641V227.492C134.405 227.055 135.198 226.836 136.096 226.836C137.741 226.836 138.563 227.706 138.563 229.447V234ZM137.442 230.459L135.754 230.691C135.234 230.764 134.842 230.894 134.578 231.081C134.314 231.263 134.182 231.589 134.182 232.059C134.182 232.4 134.302 232.681 134.544 232.899C134.79 233.114 135.116 233.221 135.521 233.221C136.077 233.221 136.535 233.027 136.896 232.64C137.26 232.248 137.442 231.753 137.442 231.156V230.459ZM145.447 233.679C144.91 234.002 144.271 234.164 143.533 234.164C142.535 234.164 141.729 233.84 141.113 233.193C140.503 232.542 140.197 231.699 140.197 230.664C140.197 229.511 140.528 228.586 141.188 227.889C141.849 227.187 142.731 226.836 143.834 226.836C144.449 226.836 144.992 226.95 145.461 227.178V228.326C144.941 227.962 144.385 227.779 143.793 227.779C143.077 227.779 142.49 228.037 142.029 228.552C141.574 229.062 141.346 229.734 141.346 230.568C141.346 231.389 141.56 232.036 141.988 232.51C142.421 232.984 143 233.221 143.725 233.221C144.335 233.221 144.91 233.018 145.447 232.612V233.679ZM151.914 233.679C151.376 234.002 150.738 234.164 150 234.164C149.002 234.164 148.195 233.84 147.58 233.193C146.969 232.542 146.664 231.699 146.664 230.664C146.664 229.511 146.994 228.586 147.655 227.889C148.316 227.187 149.198 226.836 150.301 226.836C150.916 226.836 151.458 226.95 151.928 227.178V228.326C151.408 227.962 150.852 227.779 150.26 227.779C149.544 227.779 148.956 228.037 148.496 228.552C148.04 229.062 147.812 229.734 147.812 230.568C147.812 231.389 148.027 232.036 148.455 232.51C148.888 232.984 149.467 233.221 150.191 233.221C150.802 233.221 151.376 233.018 151.914 232.612V233.679ZM156.535 234.164C155.501 234.164 154.674 233.838 154.054 233.187C153.438 232.53 153.131 231.662 153.131 230.582C153.131 229.406 153.452 228.488 154.095 227.827C154.737 227.166 155.605 226.836 156.699 226.836C157.743 226.836 158.556 227.157 159.14 227.8C159.728 228.442 160.021 229.333 160.021 230.473C160.021 231.589 159.705 232.485 159.071 233.159C158.442 233.829 157.597 234.164 156.535 234.164ZM156.617 227.779C155.897 227.779 155.327 228.025 154.908 228.518C154.489 229.005 154.279 229.68 154.279 230.541C154.279 231.37 154.491 232.024 154.915 232.503C155.339 232.981 155.906 233.221 156.617 233.221C157.342 233.221 157.898 232.986 158.285 232.517C158.677 232.047 158.873 231.38 158.873 230.514C158.873 229.639 158.677 228.964 158.285 228.49C157.898 228.016 157.342 227.779 156.617 227.779ZM167.473 234H166.352V232.893H166.324C165.859 233.74 165.139 234.164 164.164 234.164C162.496 234.164 161.662 233.171 161.662 231.184V227H162.776V231.006C162.776 232.482 163.341 233.221 164.472 233.221C165.019 233.221 165.467 233.02 165.818 232.619C166.174 232.214 166.352 231.685 166.352 231.033V227H167.473V234ZM175.553 234H174.432V230.008C174.432 228.522 173.889 227.779 172.805 227.779C172.244 227.779 171.779 227.991 171.41 228.415C171.046 228.834 170.863 229.365 170.863 230.008V234H169.742V227H170.863V228.162H170.891C171.419 227.278 172.185 226.836 173.188 226.836C173.953 226.836 174.539 227.084 174.944 227.581C175.35 228.073 175.553 228.786 175.553 229.721V234ZM180.919 233.932C180.655 234.077 180.306 234.15 179.873 234.15C178.647 234.15 178.034 233.467 178.034 232.1V227.957H176.831V227H178.034V225.291L179.155 224.929V227H180.919V227.957H179.155V231.901C179.155 232.371 179.235 232.706 179.395 232.906C179.554 233.107 179.818 233.207 180.188 233.207C180.47 233.207 180.714 233.13 180.919 232.975V233.932ZM183.441 232.441L182.348 235.805H181.548L182.348 232.441H183.441ZM192.219 234.164C191.184 234.164 190.357 233.838 189.737 233.187C189.122 232.53 188.814 231.662 188.814 230.582C188.814 229.406 189.136 228.488 189.778 227.827C190.421 227.166 191.289 226.836 192.383 226.836C193.426 226.836 194.24 227.157 194.823 227.8C195.411 228.442 195.705 229.333 195.705 230.473C195.705 231.589 195.388 232.485 194.755 233.159C194.126 233.829 193.281 234.164 192.219 234.164ZM192.301 227.779C191.581 227.779 191.011 228.025 190.592 228.518C190.173 229.005 189.963 229.68 189.963 230.541C189.963 231.37 190.175 232.024 190.599 232.503C191.022 232.981 191.59 233.221 192.301 233.221C193.025 233.221 193.581 232.986 193.969 232.517C194.361 232.047 194.557 231.38 194.557 230.514C194.557 229.639 194.361 228.964 193.969 228.49C193.581 228.016 193.025 227.779 192.301 227.779ZM201.146 228.135C200.951 227.984 200.668 227.909 200.299 227.909C199.82 227.909 199.419 228.135 199.096 228.586C198.777 229.037 198.617 229.652 198.617 230.432V234H197.496V227H198.617V228.442H198.645C198.804 227.95 199.048 227.567 199.376 227.294C199.704 227.016 200.071 226.877 200.477 226.877C200.768 226.877 200.992 226.909 201.146 226.973V228.135ZM210.977 233.679C210.439 234.002 209.801 234.164 209.062 234.164C208.064 234.164 207.258 233.84 206.643 233.193C206.032 232.542 205.727 231.699 205.727 230.664C205.727 229.511 206.057 228.586 206.718 227.889C207.379 227.187 208.26 226.836 209.363 226.836C209.979 226.836 210.521 226.95 210.99 227.178V228.326C210.471 227.962 209.915 227.779 209.322 227.779C208.607 227.779 208.019 228.037 207.559 228.552C207.103 229.062 206.875 229.734 206.875 230.568C206.875 231.389 207.089 232.036 207.518 232.51C207.951 232.984 208.529 233.221 209.254 233.221C209.865 233.221 210.439 233.018 210.977 232.612V233.679ZM216.322 228.135C216.126 227.984 215.844 227.909 215.475 227.909C214.996 227.909 214.595 228.135 214.271 228.586C213.952 229.037 213.793 229.652 213.793 230.432V234H212.672V227H213.793V228.442H213.82C213.98 227.95 214.224 227.567 214.552 227.294C214.88 227.016 215.247 226.877 215.652 226.877C215.944 226.877 216.167 226.909 216.322 226.973V228.135ZM223.165 230.78H218.223C218.241 231.56 218.451 232.161 218.852 232.585C219.253 233.009 219.804 233.221 220.506 233.221C221.294 233.221 222.019 232.961 222.68 232.441V233.494C222.064 233.941 221.251 234.164 220.239 234.164C219.25 234.164 218.473 233.847 217.908 233.214C217.343 232.576 217.061 231.68 217.061 230.527C217.061 229.438 217.368 228.552 217.983 227.868C218.603 227.18 219.371 226.836 220.287 226.836C221.203 226.836 221.912 227.132 222.413 227.725C222.914 228.317 223.165 229.14 223.165 230.192V230.78ZM222.017 229.83C222.012 229.183 221.855 228.679 221.545 228.319C221.24 227.959 220.813 227.779 220.267 227.779C219.738 227.779 219.289 227.968 218.92 228.347C218.551 228.725 218.323 229.219 218.236 229.83H222.017ZM229.878 234H228.757V232.906H228.729C228.242 233.745 227.524 234.164 226.576 234.164C225.879 234.164 225.332 233.979 224.936 233.61C224.544 233.241 224.348 232.751 224.348 232.141C224.348 230.833 225.118 230.072 226.658 229.857L228.757 229.563C228.757 228.374 228.276 227.779 227.314 227.779C226.471 227.779 225.71 228.066 225.031 228.641V227.492C225.719 227.055 226.512 226.836 227.41 226.836C229.055 226.836 229.878 227.706 229.878 229.447V234ZM228.757 230.459L227.068 230.691C226.549 230.764 226.157 230.894 225.893 231.081C225.628 231.263 225.496 231.589 225.496 232.059C225.496 232.4 225.617 232.681 225.858 232.899C226.104 233.114 226.43 233.221 226.836 233.221C227.392 233.221 227.85 233.027 228.21 232.64C228.575 232.248 228.757 231.753 228.757 231.156V230.459ZM235.237 233.932C234.973 234.077 234.624 234.15 234.191 234.15C232.965 234.15 232.353 233.467 232.353 232.1V227.957H231.149V227H232.353V225.291L233.474 224.929V227H235.237V227.957H233.474V231.901C233.474 232.371 233.553 232.706 233.713 232.906C233.872 233.107 234.137 233.207 234.506 233.207C234.788 233.207 235.032 233.13 235.237 232.975V233.932ZM242.36 230.78H237.418C237.436 231.56 237.646 232.161 238.047 232.585C238.448 233.009 238.999 233.221 239.701 233.221C240.49 233.221 241.214 232.961 241.875 232.441V233.494C241.26 233.941 240.446 234.164 239.435 234.164C238.446 234.164 237.669 233.847 237.104 233.214C236.538 232.576 236.256 231.68 236.256 230.527C236.256 229.438 236.563 228.552 237.179 227.868C237.799 227.18 238.566 226.836 239.482 226.836C240.398 226.836 241.107 227.132 241.608 227.725C242.11 228.317 242.36 229.14 242.36 230.192V230.78ZM241.212 229.83C241.207 229.183 241.05 228.679 240.74 228.319C240.435 227.959 240.009 227.779 239.462 227.779C238.933 227.779 238.484 227.968 238.115 228.347C237.746 228.725 237.518 229.219 237.432 229.83H241.212ZM252.915 234H251.794V232.906H251.767C251.279 233.745 250.561 234.164 249.613 234.164C248.916 234.164 248.369 233.979 247.973 233.61C247.581 233.241 247.385 232.751 247.385 232.141C247.385 230.833 248.155 230.072 249.695 229.857L251.794 229.563C251.794 228.374 251.313 227.779 250.352 227.779C249.508 227.779 248.747 228.066 248.068 228.641V227.492C248.757 227.055 249.549 226.836 250.447 226.836C252.092 226.836 252.915 227.706 252.915 229.447V234ZM251.794 230.459L250.105 230.691C249.586 230.764 249.194 230.894 248.93 231.081C248.665 231.263 248.533 231.589 248.533 232.059C248.533 232.4 248.654 232.681 248.896 232.899C249.142 233.114 249.467 233.221 249.873 233.221C250.429 233.221 250.887 233.027 251.247 232.64C251.612 232.248 251.794 231.753 251.794 231.156V230.459ZM264.68 234H263.559V230.008C263.559 228.522 263.016 227.779 261.932 227.779C261.371 227.779 260.906 227.991 260.537 228.415C260.173 228.834 259.99 229.365 259.99 230.008V234H258.869V227H259.99V228.162H260.018C260.546 227.278 261.312 226.836 262.314 226.836C263.08 226.836 263.666 227.084 264.071 227.581C264.477 228.073 264.68 228.786 264.68 229.721V234ZM272.425 230.78H267.482C267.501 231.56 267.71 232.161 268.111 232.585C268.512 233.009 269.064 233.221 269.766 233.221C270.554 233.221 271.279 232.961 271.939 232.441V233.494C271.324 233.941 270.511 234.164 269.499 234.164C268.51 234.164 267.733 233.847 267.168 233.214C266.603 232.576 266.32 231.68 266.32 230.527C266.32 229.438 266.628 228.552 267.243 227.868C267.863 227.18 268.631 226.836 269.547 226.836C270.463 226.836 271.172 227.132 271.673 227.725C272.174 228.317 272.425 229.14 272.425 230.192V230.78ZM271.276 229.83C271.272 229.183 271.115 228.679 270.805 228.319C270.499 227.959 270.073 227.779 269.526 227.779C268.998 227.779 268.549 227.968 268.18 228.347C267.811 228.725 267.583 229.219 267.496 229.83H271.276ZM282.945 227L280.847 234H279.685L278.242 228.989C278.188 228.798 278.151 228.581 278.133 228.34H278.105C278.092 228.504 278.044 228.716 277.962 228.976L276.396 234H275.275L273.156 227H274.332L275.781 232.264C275.827 232.423 275.859 232.633 275.877 232.893H275.932C275.945 232.692 275.986 232.478 276.055 232.25L277.668 227H278.693L280.143 232.277C280.188 232.446 280.222 232.656 280.245 232.906H280.3C280.309 232.729 280.348 232.519 280.416 232.277L281.838 227H282.945ZM291.012 234.164C289.977 234.164 289.15 233.838 288.53 233.187C287.915 232.53 287.607 231.662 287.607 230.582C287.607 229.406 287.929 228.488 288.571 227.827C289.214 227.166 290.082 226.836 291.176 226.836C292.219 226.836 293.033 227.157 293.616 227.8C294.204 228.442 294.498 229.333 294.498 230.473C294.498 231.589 294.181 232.485 293.548 233.159C292.919 233.829 292.074 234.164 291.012 234.164ZM291.094 227.779C290.374 227.779 289.804 228.025 289.385 228.518C288.965 229.005 288.756 229.68 288.756 230.541C288.756 231.37 288.968 232.024 289.392 232.503C289.815 232.981 290.383 233.221 291.094 233.221C291.818 233.221 292.374 232.986 292.762 232.517C293.154 232.047 293.35 231.38 293.35 230.514C293.35 229.639 293.154 228.964 292.762 228.49C292.374 228.016 291.818 227.779 291.094 227.779ZM302.1 234H300.979V230.008C300.979 228.522 300.436 227.779 299.352 227.779C298.791 227.779 298.326 227.991 297.957 228.415C297.592 228.834 297.41 229.365 297.41 230.008V234H296.289V227H297.41V228.162H297.438C297.966 227.278 298.732 226.836 299.734 226.836C300.5 226.836 301.086 227.084 301.491 227.581C301.897 228.073 302.1 228.786 302.1 229.721V234ZM309.845 230.78H304.902C304.921 231.56 305.13 232.161 305.531 232.585C305.932 233.009 306.484 233.221 307.186 233.221C307.974 233.221 308.699 232.961 309.359 232.441V233.494C308.744 233.941 307.931 234.164 306.919 234.164C305.93 234.164 305.153 233.847 304.588 233.214C304.023 232.576 303.74 231.68 303.74 230.527C303.74 229.438 304.048 228.552 304.663 227.868C305.283 227.18 306.051 226.836 306.967 226.836C307.883 226.836 308.591 227.132 309.093 227.725C309.594 228.317 309.845 229.14 309.845 230.192V230.78ZM308.696 229.83C308.692 229.183 308.535 228.679 308.225 228.319C307.919 227.959 307.493 227.779 306.946 227.779C306.418 227.779 305.969 227.968 305.6 228.347C305.23 228.725 305.003 229.219 304.916 229.83H308.696ZM311.937 234.15C311.727 234.15 311.547 234.075 311.396 233.925C311.251 233.774 311.178 233.594 311.178 233.385C311.178 233.175 311.251 232.995 311.396 232.845C311.547 232.69 311.727 232.612 311.937 232.612C312.151 232.612 312.333 232.69 312.483 232.845C312.634 232.995 312.709 233.175 312.709 233.385C312.709 233.594 312.634 233.774 312.483 233.925C312.333 234.075 312.151 234.15 311.937 234.15Z" fill="black"/>
<g filter="url(#filter0_d_2_2)">
<rect x="52" y="274" width="255" height="49" rx="8" fill="url(#paint2_linear_2_2)"/>
</g>
<path d="M152.227 303.555V301.641C152.398 301.797 152.602 301.938 152.836 302.062C153.076 302.188 153.328 302.294 153.594 302.383C153.859 302.466 154.125 302.531 154.391 302.578C154.656 302.625 154.901 302.648 155.125 302.648C155.906 302.648 156.487 302.518 156.867 302.258C157.253 301.997 157.445 301.62 157.445 301.125C157.445 300.859 157.38 300.63 157.25 300.438C157.125 300.24 156.948 300.06 156.719 299.898C156.49 299.737 156.219 299.583 155.906 299.438C155.599 299.286 155.268 299.13 154.914 298.969C154.534 298.766 154.18 298.56 153.852 298.352C153.523 298.143 153.237 297.914 152.992 297.664C152.753 297.409 152.562 297.122 152.422 296.805C152.286 296.487 152.219 296.115 152.219 295.688C152.219 295.161 152.336 294.706 152.57 294.32C152.81 293.93 153.122 293.609 153.508 293.359C153.898 293.104 154.341 292.917 154.836 292.797C155.331 292.672 155.836 292.609 156.352 292.609C157.523 292.609 158.378 292.742 158.914 293.008V294.844C158.279 294.385 157.461 294.156 156.461 294.156C156.185 294.156 155.909 294.182 155.633 294.234C155.362 294.286 155.117 294.372 154.898 294.492C154.685 294.612 154.51 294.766 154.375 294.953C154.24 295.141 154.172 295.367 154.172 295.633C154.172 295.883 154.224 296.099 154.328 296.281C154.432 296.464 154.583 296.63 154.781 296.781C154.984 296.932 155.229 297.081 155.516 297.227C155.807 297.367 156.143 297.521 156.523 297.688C156.914 297.891 157.281 298.104 157.625 298.328C157.974 298.552 158.279 298.799 158.539 299.07C158.805 299.341 159.013 299.643 159.164 299.977C159.32 300.305 159.398 300.68 159.398 301.102C159.398 301.669 159.284 302.148 159.055 302.539C158.826 302.93 158.516 303.247 158.125 303.492C157.74 303.737 157.294 303.914 156.789 304.023C156.284 304.133 155.75 304.188 155.188 304.188C155 304.188 154.768 304.172 154.492 304.141C154.221 304.115 153.943 304.073 153.656 304.016C153.37 303.964 153.099 303.898 152.844 303.82C152.589 303.742 152.383 303.654 152.227 303.555ZM162.172 294.32C161.875 294.32 161.62 294.224 161.406 294.031C161.198 293.839 161.094 293.594 161.094 293.297C161.094 293 161.198 292.753 161.406 292.555C161.62 292.357 161.875 292.258 162.172 292.258C162.479 292.258 162.74 292.357 162.953 292.555C163.167 292.753 163.273 293 163.273 293.297C163.273 293.578 163.167 293.82 162.953 294.023C162.74 294.221 162.479 294.32 162.172 294.32ZM163.07 304H161.258V296H163.07V304ZM172.727 303.359C172.727 306.297 171.25 307.766 168.297 307.766C167.255 307.766 166.346 307.591 165.57 307.242V305.586C166.445 306.086 167.276 306.336 168.062 306.336C169.964 306.336 170.914 305.401 170.914 303.531V302.656H170.883C170.284 303.677 169.383 304.188 168.18 304.188C167.206 304.188 166.419 303.833 165.82 303.125C165.227 302.411 164.93 301.456 164.93 300.258C164.93 298.898 165.25 297.818 165.891 297.016C166.531 296.214 167.411 295.812 168.531 295.812C169.589 295.812 170.372 296.245 170.883 297.109H170.914V296H172.727V303.359ZM170.93 300.336V299.297C170.93 298.734 170.742 298.255 170.367 297.859C169.997 297.458 169.534 297.258 168.977 297.258C168.289 297.258 167.75 297.513 167.359 298.023C166.974 298.529 166.781 299.237 166.781 300.148C166.781 300.935 166.966 301.565 167.336 302.039C167.711 302.508 168.206 302.742 168.82 302.742C169.445 302.742 169.953 302.518 170.344 302.07C170.734 301.617 170.93 301.039 170.93 300.336ZM182.211 304H180.398V299.492C180.398 297.997 179.87 297.25 178.812 297.25C178.26 297.25 177.805 297.458 177.445 297.875C177.086 298.286 176.906 298.807 176.906 299.438V304H175.086V296H176.906V297.328H176.938C177.536 296.318 178.401 295.812 179.531 295.812C180.401 295.812 181.065 296.096 181.523 296.664C181.982 297.227 182.211 298.042 182.211 299.109V304ZM195.812 304H194V302.734H193.969C193.443 303.703 192.625 304.188 191.516 304.188C189.625 304.188 188.68 303.052 188.68 300.781V296H190.492V300.594C190.492 302.031 191.047 302.75 192.156 302.75C192.693 302.75 193.133 302.552 193.477 302.156C193.826 301.76 194 301.242 194 300.602V296H195.812V304ZM200.023 302.82H199.992V307.68H198.18V296H199.992V297.406H200.023C200.643 296.344 201.549 295.812 202.742 295.812C203.758 295.812 204.549 296.169 205.117 296.883C205.685 297.596 205.969 298.555 205.969 299.758C205.969 301.091 205.648 302.159 205.008 302.961C204.367 303.763 203.492 304.164 202.383 304.164C201.362 304.164 200.576 303.716 200.023 302.82ZM199.977 299.664V300.656C199.977 301.24 200.161 301.734 200.531 302.141C200.906 302.547 201.38 302.75 201.953 302.75C202.625 302.75 203.151 302.49 203.531 301.969C203.917 301.443 204.109 300.711 204.109 299.773C204.109 298.987 203.93 298.372 203.57 297.93C203.216 297.482 202.734 297.258 202.125 297.258C201.479 297.258 200.958 297.487 200.562 297.945C200.172 298.404 199.977 298.977 199.977 299.664Z" fill="white"/>
<g filter="url(#filter1_d_2_2)">
<rect x="52" y="368" width="255" height="49" rx="8" fill="url(#paint3_linear_2_2)"/>
</g>
<path d="M164.102 398H157.898V386.797H159.758V396.43H164.102V398ZM169.07 398.188C167.836 398.188 166.849 397.815 166.109 397.07C165.375 396.32 165.008 395.328 165.008 394.094C165.008 392.75 165.391 391.701 166.156 390.945C166.927 390.19 167.964 389.812 169.266 389.812C170.516 389.812 171.49 390.18 172.188 390.914C172.885 391.648 173.234 392.667 173.234 393.969C173.234 395.245 172.857 396.268 172.102 397.039C171.352 397.805 170.341 398.188 169.07 398.188ZM169.156 391.258C168.448 391.258 167.888 391.505 167.477 392C167.065 392.495 166.859 393.177 166.859 394.047C166.859 394.885 167.068 395.547 167.484 396.031C167.901 396.51 168.458 396.75 169.156 396.75C169.87 396.75 170.417 396.513 170.797 396.039C171.182 395.565 171.375 394.891 171.375 394.016C171.375 393.135 171.182 392.456 170.797 391.977C170.417 391.497 169.87 391.258 169.156 391.258ZM182.367 397.359C182.367 400.297 180.891 401.766 177.938 401.766C176.896 401.766 175.987 401.591 175.211 401.242V399.586C176.086 400.086 176.917 400.336 177.703 400.336C179.604 400.336 180.555 399.401 180.555 397.531V396.656H180.523C179.924 397.677 179.023 398.188 177.82 398.188C176.846 398.188 176.06 397.833 175.461 397.125C174.867 396.411 174.57 395.456 174.57 394.258C174.57 392.898 174.891 391.818 175.531 391.016C176.172 390.214 177.052 389.812 178.172 389.812C179.229 389.812 180.013 390.245 180.523 391.109H180.555V390H182.367V397.359ZM180.57 394.336V393.297C180.57 392.734 180.383 392.255 180.008 391.859C179.638 391.458 179.174 391.258 178.617 391.258C177.93 391.258 177.391 391.513 177 392.023C176.615 392.529 176.422 393.237 176.422 394.148C176.422 394.935 176.607 395.565 176.977 396.039C177.352 396.508 177.846 396.742 178.461 396.742C179.086 396.742 179.594 396.518 179.984 396.07C180.375 395.617 180.57 395.039 180.57 394.336ZM190.047 388.32C189.75 388.32 189.495 388.224 189.281 388.031C189.073 387.839 188.969 387.594 188.969 387.297C188.969 387 189.073 386.753 189.281 386.555C189.495 386.357 189.75 386.258 190.047 386.258C190.354 386.258 190.615 386.357 190.828 386.555C191.042 386.753 191.148 387 191.148 387.297C191.148 387.578 191.042 387.82 190.828 388.023C190.615 388.221 190.354 388.32 190.047 388.32ZM190.945 398H189.133V390H190.945V398ZM200.445 398H198.633V393.492C198.633 391.997 198.104 391.25 197.047 391.25C196.495 391.25 196.039 391.458 195.68 391.875C195.32 392.286 195.141 392.807 195.141 393.438V398H193.32V390H195.141V391.328H195.172C195.771 390.318 196.635 389.812 197.766 389.812C198.635 389.812 199.299 390.096 199.758 390.664C200.216 391.227 200.445 392.042 200.445 393.109V398Z" fill="white"/>
<path d="M154.09 783H153.111V777.363C153.111 776.918 153.139 776.373 153.193 775.729H153.17C153.076 776.107 152.992 776.379 152.918 776.543L150.047 783H149.566L146.701 776.59C146.619 776.402 146.535 776.115 146.449 775.729H146.426C146.457 776.064 146.473 776.613 146.473 777.375V783H145.523V774.598H146.824L149.402 780.457C149.602 780.906 149.73 781.242 149.789 781.465H149.824C149.992 781.004 150.127 780.66 150.229 780.434L152.859 774.598H154.09V783ZM160.951 777L158.191 783.961C157.699 785.203 157.008 785.824 156.117 785.824C155.867 785.824 155.658 785.799 155.49 785.748V784.887C155.697 784.957 155.887 784.992 156.059 784.992C156.543 784.992 156.906 784.703 157.148 784.125L157.629 782.988L155.285 777H156.352L157.975 781.617C157.994 781.676 158.035 781.828 158.098 782.074H158.133C158.152 781.98 158.191 781.832 158.25 781.629L159.955 777H160.951ZM166.078 782.725C165.617 783.002 165.07 783.141 164.438 783.141C163.582 783.141 162.891 782.863 162.363 782.309C161.84 781.75 161.578 781.027 161.578 780.141C161.578 779.152 161.861 778.359 162.428 777.762C162.994 777.16 163.75 776.859 164.695 776.859C165.223 776.859 165.688 776.957 166.09 777.152V778.137C165.645 777.824 165.168 777.668 164.66 777.668C164.047 777.668 163.543 777.889 163.148 778.33C162.758 778.768 162.562 779.344 162.562 780.059C162.562 780.762 162.746 781.316 163.113 781.723C163.484 782.129 163.98 782.332 164.602 782.332C165.125 782.332 165.617 782.158 166.078 781.811V782.725ZM172.383 783H171.422V782.051H171.398C171 782.777 170.383 783.141 169.547 783.141C168.117 783.141 167.402 782.289 167.402 780.586V777H168.357V780.434C168.357 781.699 168.842 782.332 169.811 782.332C170.279 782.332 170.664 782.16 170.965 781.816C171.27 781.469 171.422 781.016 171.422 780.457V777H172.383V783ZM177.457 777.973C177.289 777.844 177.047 777.779 176.73 777.779C176.32 777.779 175.977 777.973 175.699 778.359C175.426 778.746 175.289 779.273 175.289 779.941V783H174.328V777H175.289V778.236H175.312C175.449 777.814 175.658 777.486 175.939 777.252C176.221 777.014 176.535 776.895 176.883 776.895C177.133 776.895 177.324 776.922 177.457 776.977V777.973ZM183.322 780.24H179.086C179.102 780.908 179.281 781.424 179.625 781.787C179.969 782.15 180.441 782.332 181.043 782.332C181.719 782.332 182.34 782.109 182.906 781.664V782.566C182.379 782.949 181.682 783.141 180.814 783.141C179.967 783.141 179.301 782.869 178.816 782.326C178.332 781.779 178.09 781.012 178.09 780.023C178.09 779.09 178.354 778.33 178.881 777.744C179.412 777.154 180.07 776.859 180.855 776.859C181.641 776.859 182.248 777.113 182.678 777.621C183.107 778.129 183.322 778.834 183.322 779.736V780.24ZM182.338 779.426C182.334 778.871 182.199 778.439 181.934 778.131C181.672 777.822 181.307 777.668 180.838 777.668C180.385 777.668 180 777.83 179.684 778.154C179.367 778.479 179.172 778.902 179.098 779.426H182.338ZM191.625 776.801C191.625 776.543 191.584 776.318 191.502 776.127C191.424 775.936 191.314 775.777 191.174 775.652C191.037 775.523 190.875 775.428 190.688 775.365C190.5 775.303 190.297 775.271 190.078 775.271C189.891 775.271 189.707 775.297 189.527 775.348C189.348 775.398 189.172 775.469 189 775.559C188.832 775.648 188.668 775.756 188.508 775.881C188.352 776.006 188.205 776.145 188.068 776.297V775.266C188.338 775.004 188.639 774.805 188.971 774.668C189.307 774.527 189.715 774.457 190.195 774.457C190.539 774.457 190.857 774.508 191.15 774.609C191.443 774.707 191.697 774.852 191.912 775.043C192.127 775.234 192.295 775.471 192.416 775.752C192.541 776.033 192.604 776.355 192.604 776.719C192.604 777.051 192.564 777.352 192.486 777.621C192.412 777.891 192.297 778.145 192.141 778.383C191.988 778.621 191.795 778.85 191.561 779.068C191.326 779.287 191.051 779.51 190.734 779.736C190.34 780.018 190.014 780.258 189.756 780.457C189.502 780.656 189.299 780.844 189.146 781.02C188.998 781.191 188.893 781.365 188.83 781.541C188.771 781.713 188.742 781.912 188.742 782.139H192.926V783H187.74V782.584C187.74 782.225 187.779 781.908 187.857 781.635C187.936 781.361 188.064 781.102 188.244 780.855C188.424 780.609 188.658 780.363 188.947 780.117C189.24 779.871 189.598 779.594 190.02 779.285C190.324 779.066 190.578 778.857 190.781 778.658C190.988 778.459 191.154 778.26 191.279 778.061C191.404 777.861 191.492 777.66 191.543 777.457C191.598 777.25 191.625 777.031 191.625 776.801ZM199.547 778.764C199.547 779.467 199.482 780.09 199.354 780.633C199.229 781.176 199.045 781.635 198.803 782.01C198.564 782.381 198.27 782.664 197.918 782.859C197.57 783.051 197.174 783.146 196.729 783.146C196.307 783.146 195.93 783.055 195.598 782.871C195.27 782.684 194.992 782.412 194.766 782.057C194.539 781.701 194.367 781.266 194.25 780.75C194.133 780.23 194.074 779.637 194.074 778.969C194.074 778.234 194.135 777.586 194.256 777.023C194.381 776.461 194.562 775.99 194.801 775.611C195.039 775.229 195.334 774.941 195.686 774.75C196.041 774.555 196.447 774.457 196.904 774.457C198.666 774.457 199.547 775.893 199.547 778.764ZM198.562 778.857C198.562 776.467 197.994 775.271 196.857 775.271C195.658 775.271 195.059 776.488 195.059 778.922C195.059 781.191 195.646 782.326 196.822 782.326C197.982 782.326 198.562 781.17 198.562 778.857ZM204.562 776.801C204.562 776.543 204.521 776.318 204.439 776.127C204.361 775.936 204.252 775.777 204.111 775.652C203.975 775.523 203.812 775.428 203.625 775.365C203.438 775.303 203.234 775.271 203.016 775.271C202.828 775.271 202.645 775.297 202.465 775.348C202.285 775.398 202.109 775.469 201.938 775.559C201.77 775.648 201.605 775.756 201.445 775.881C201.289 776.006 201.143 776.145 201.006 776.297V775.266C201.275 775.004 201.576 774.805 201.908 774.668C202.244 774.527 202.652 774.457 203.133 774.457C203.477 774.457 203.795 774.508 204.088 774.609C204.381 774.707 204.635 774.852 204.85 775.043C205.064 775.234 205.232 775.471 205.354 775.752C205.479 776.033 205.541 776.355 205.541 776.719C205.541 777.051 205.502 777.352 205.424 777.621C205.35 777.891 205.234 778.145 205.078 778.383C204.926 778.621 204.732 778.85 204.498 779.068C204.264 779.287 203.988 779.51 203.672 779.736C203.277 780.018 202.951 780.258 202.693 780.457C202.439 780.656 202.236 780.844 202.084 781.02C201.936 781.191 201.83 781.365 201.768 781.541C201.709 781.713 201.68 781.912 201.68 782.139H205.863V783H200.678V782.584C200.678 782.225 200.717 781.908 200.795 781.635C200.873 781.361 201.002 781.102 201.182 780.855C201.361 780.609 201.596 780.363 201.885 780.117C202.178 779.871 202.535 779.594 202.957 779.285C203.262 779.066 203.516 778.857 203.719 778.658C203.926 778.459 204.092 778.26 204.217 778.061C204.342 777.861 204.43 777.66 204.48 777.457C204.535 777.25 204.562 777.031 204.562 776.801ZM211.031 776.801C211.031 776.543 210.99 776.318 210.908 776.127C210.83 775.936 210.721 775.777 210.58 775.652C210.443 775.523 210.281 775.428 210.094 775.365C209.906 775.303 209.703 775.271 209.484 775.271C209.297 775.271 209.113 775.297 208.934 775.348C208.754 775.398 208.578 775.469 208.406 775.559C208.238 775.648 208.074 775.756 207.914 775.881C207.758 776.006 207.611 776.145 207.475 776.297V775.266C207.744 775.004 208.045 774.805 208.377 774.668C208.713 774.527 209.121 774.457 209.602 774.457C209.945 774.457 210.264 774.508 210.557 774.609C210.85 774.707 211.104 774.852 211.318 775.043C211.533 775.234 211.701 775.471 211.822 775.752C211.947 776.033 212.01 776.355 212.01 776.719C212.01 777.051 211.971 777.352 211.893 777.621C211.818 777.891 211.703 778.145 211.547 778.383C211.395 778.621 211.201 778.85 210.967 779.068C210.732 779.287 210.457 779.51 210.141 779.736C209.746 780.018 209.42 780.258 209.162 780.457C208.908 780.656 208.705 780.844 208.553 781.02C208.404 781.191 208.299 781.365 208.236 781.541C208.178 781.713 208.148 781.912 208.148 782.139H212.332V783H207.146V782.584C207.146 782.225 207.186 781.908 207.264 781.635C207.342 781.361 207.471 781.102 207.65 780.855C207.83 780.609 208.064 780.363 208.354 780.117C208.646 779.871 209.004 779.594 209.426 779.285C209.73 779.066 209.984 778.857 210.188 778.658C210.395 778.459 210.561 778.26 210.686 778.061C210.811 777.861 210.898 777.66 210.949 777.457C211.004 777.25 211.031 777.031 211.031 776.801ZM214.283 783.129C214.104 783.129 213.949 783.064 213.82 782.936C213.695 782.807 213.633 782.652 213.633 782.473C213.633 782.293 213.695 782.139 213.82 782.01C213.949 781.877 214.104 781.811 214.283 781.811C214.467 781.811 214.623 781.877 214.752 782.01C214.881 782.139 214.945 782.293 214.945 782.473C214.945 782.652 214.881 782.807 214.752 782.936C214.623 783.064 214.467 783.129 214.283 783.129Z" fill="#98979F"/>
</g>
<defs>
<filter id="filter0_d_2_2" x="42" y="268" width="275" height="69" filterUnits="userSpaceOnUse" color-interpolation-filters="sRGB">
<feFlood flood-opacity="0" result="BackgroundImageFix"/>
<feColorMatrix in="SourceAlpha" type="matrix" values="0 0 0 0 0 0 0 0 0 0 0 0 0 0 0 0 0 0 127 0" result="hardAlpha"/>
<feOffset dy="4"/>
<feGaussianBlur stdDeviation="5"/>
<feComposite in2="hardAlpha" operator="out"/>
<feColorMatrix type="matrix" values="0 0 0 0 0 0 0 0 0 0 0 0 0 0 0 0 0 0 0.2 0"/>
<feBlend mode="normal" in2="BackgroundImageFix" result="effect1_dropShadow_2_2"/>
<feBlend mode="normal" in="SourceGraphic" in2="effect1_dropShadow_2_2" result="shape"/>
</filter>
<filter id="filter1_d_2_2" x="42" y="362" width="275" height="69" filterUnits="userSpaceOnUse" color-interpolation-filters="sRGB">
<feFlood flood-opacity="0" result="BackgroundImageFix"/>
<feColorMatrix in="SourceAlpha" type="matrix" values="0 0 0 0 0 0 0 0 0 0 0 0 0 0 0 0 0 0 127 0" result="hardAlpha"/>
<feOffset dy="4"/>
<feGaussianBlur stdDeviation="5"/>
<feComposite in2="hardAlpha" operator="out"/>
<feColorMatrix type="matrix" values="0 0 0 0 0 0 0 0 0 0 0 0 0 0 0 0 0 0 0.2 0"/>
<feBlend mode="normal" in2="BackgroundImageFix" result="effect1_dropShadow_2_2"/>
<feBlend mode="normal" in="SourceGraphic" in2="effect1_dropShadow_2_2" result="shape"/>
</filter>
<linearGradient id="paint0_linear_2_2" x1="180" y1="0" x2="180" y2="800" gradientUnits="userSpaceOnUse">
<stop stop-color="white"/>
<stop offset="1" stop-color="#DFDDED"/>
</linearGradient>
<linearGradient id="paint1_linear_2_2" x1="-30" y1="210" x2="365" y2="210" gradientUnits="userSpaceOnUse">
<stop offset="0.364583" stop-color="#3B4A9A" stop-opacity="0"/>
<stop offset="1" stop-color="#3B4A9A"/>
</linearGradient>
<linearGradient id="paint2_linear_2_2" x1="179.5" y1="274" x2="179.5" y2="323" gradientUnits="userSpaceOnUse">
<stop stop-color="#BBC5FC"/>
<stop offset="1" stop-color="#9DABF8"/>
</linearGradient>
<linearGradient id="paint3_linear_2_2" x1="179.5" y1="368" x2="179.5" y2="417" gradientUnits="userSpaceOnUse">
<stop stop-color="#BBC5FC"/>
<stop offset="1" stop-color="#9DABF8"/>
</linearGradient>
<clipPath id="clip0_2_2">
<rect width="360" height="800" fill="white"/>
</clipPath>
</defs>
</svg>
