<svg width="330" height="330" viewBox="0 0 330 330" fill="none" xmlns="http://www.w3.org/2000/svg">
<rect width="330" height="330" rx="35" fill="white"/>
<path d="M166 223L108 164C82.9999 221 135.5 261.5 164.959 282.843C165.295 283.086 165.656 283.285 166 283.5C239 228.5 240.5 194.5 225 164L166 223Z" fill="#B6A8D2"/>
<path d="M22 137C56 68.6 96.8333 47.8333 113 46L166 99C175.833 89.5 200.4 65.6 220 46C280.4 71.6 304.5 120 309 141C304.5 145.167 291.3 157.8 274.5 175C273.7 132.2 241.833 106.5 226 99L166 158C156.167 148.833 129.8 124.2 103 99C77.4 111.8 62 154.333 57.5 174C50 166.667 32.4 149 22 137Z" fill="#7E7AAE"/>
<path d="M123 243H143.043L144.543 235.5L147.543 251.5L150.043 243H159.043L164.543 226L169.543 260.5L174.543 243H184.043L186.543 235.5L189.543 251L191.543 243H210.449" stroke="#E9E9F4" stroke-width="2" stroke-linecap="round" stroke-linejoin="round"/>
</svg>
