<svg width="287" height="238" viewBox="0 0 287 238" fill="none" xmlns="http://www.w3.org/2000/svg">
<path d="M144 177L85.9999 118C60.9999 175 113.5 215.5 142.959 236.843C143.295 237.086 143.656 237.285 144 237.5C217 182.5 218.5 148.5 203 118L144 177Z" fill="#B6A8D2"/>
<path d="M0 91C34 22.6 74.8333 1.83333 91 0L144 53C153.833 43.5 178.4 19.6 198 0C258.4 25.6 282.5 74 287 95C282.5 99.1667 269.3 111.8 252.5 129C251.7 86.2 219.833 60.5 204 53L144 112C134.167 102.833 107.8 78.2 81 53C55.4 65.8 40 108.333 35.5 128C28 120.667 10.4 103 0 91Z" fill="#7E7AAE"/>
<path d="M99.957 197H120L121.5 189.5L124.5 205.5L127 197H136L141.5 180L146.5 214.5L151.5 197H161L163.5 189.5L166.5 205L168.5 197H187.406" stroke="#E9E9F4" stroke-width="2" stroke-linecap="round" stroke-linejoin="round"/>
</svg>
