<svg width="275" height="69" viewBox="0 0 275 69" fill="none" xmlns="http://www.w3.org/2000/svg">
<g filter="url(#filter0_d_21_26)">
<rect x="10" y="6" width="255" height="49" rx="8" fill="url(#paint0_linear_21_26)"/>
</g>
<path d="M110.227 35.5547V33.6406C110.398 33.7969 110.602 33.9375 110.836 34.0625C111.076 34.1875 111.328 34.2943 111.594 34.3828C111.859 34.4661 112.125 34.5312 112.391 34.5781C112.656 34.625 112.901 34.6484 113.125 34.6484C113.906 34.6484 114.487 34.5182 114.867 34.2578C115.253 33.9974 115.445 33.6198 115.445 33.125C115.445 32.8594 115.38 32.6302 115.25 32.4375C115.125 32.2396 114.948 32.0599 114.719 31.8984C114.49 31.737 114.219 31.5833 113.906 31.4375C113.599 31.2865 113.268 31.1302 112.914 30.9688C112.534 30.7656 112.18 30.5599 111.852 30.3516C111.523 30.1432 111.237 29.9141 110.992 29.6641C110.753 29.4089 110.562 29.1224 110.422 28.8047C110.286 28.487 110.219 28.1146 110.219 27.6875C110.219 27.1615 110.336 26.7057 110.57 26.3203C110.81 25.9297 111.122 25.6094 111.508 25.3594C111.898 25.1042 112.341 24.9167 112.836 24.7969C113.331 24.6719 113.836 24.6094 114.352 24.6094C115.523 24.6094 116.378 24.7422 116.914 25.0078V26.8438C116.279 26.3854 115.461 26.1562 114.461 26.1562C114.185 26.1562 113.909 26.1823 113.633 26.2344C113.362 26.2865 113.117 26.3724 112.898 26.4922C112.685 26.612 112.51 26.7656 112.375 26.9531C112.24 27.1406 112.172 27.3672 112.172 27.6328C112.172 27.8828 112.224 28.099 112.328 28.2812C112.432 28.4635 112.583 28.6302 112.781 28.7812C112.984 28.9323 113.229 29.0807 113.516 29.2266C113.807 29.3672 114.143 29.5208 114.523 29.6875C114.914 29.8906 115.281 30.1042 115.625 30.3281C115.974 30.5521 116.279 30.7995 116.539 31.0703C116.805 31.3411 117.013 31.6432 117.164 31.9766C117.32 32.3047 117.398 32.6797 117.398 33.1016C117.398 33.6693 117.284 34.1484 117.055 34.5391C116.826 34.9297 116.516 35.2474 116.125 35.4922C115.74 35.737 115.294 35.9141 114.789 36.0234C114.284 36.1328 113.75 36.1875 113.188 36.1875C113 36.1875 112.768 36.1719 112.492 36.1406C112.221 36.1146 111.943 36.0729 111.656 36.0156C111.37 35.9635 111.099 35.8984 110.844 35.8203C110.589 35.7422 110.383 35.6536 110.227 35.5547ZM120.172 26.3203C119.875 26.3203 119.62 26.224 119.406 26.0312C119.198 25.8385 119.094 25.5938 119.094 25.2969C119.094 25 119.198 24.7526 119.406 24.5547C119.62 24.3568 119.875 24.2578 120.172 24.2578C120.479 24.2578 120.74 24.3568 120.953 24.5547C121.167 24.7526 121.273 25 121.273 25.2969C121.273 25.5781 121.167 25.8203 120.953 26.0234C120.74 26.2214 120.479 26.3203 120.172 26.3203ZM121.07 36H119.258V28H121.07V36ZM130.727 35.3594C130.727 38.2969 129.25 39.7656 126.297 39.7656C125.255 39.7656 124.346 39.5911 123.57 39.2422V37.5859C124.445 38.0859 125.276 38.3359 126.062 38.3359C127.964 38.3359 128.914 37.401 128.914 35.5312V34.6562H128.883C128.284 35.6771 127.383 36.1875 126.18 36.1875C125.206 36.1875 124.419 35.8333 123.82 35.125C123.227 34.4115 122.93 33.4557 122.93 32.2578C122.93 30.8984 123.25 29.8177 123.891 29.0156C124.531 28.2135 125.411 27.8125 126.531 27.8125C127.589 27.8125 128.372 28.2448 128.883 29.1094H128.914V28H130.727V35.3594ZM128.93 32.3359V31.2969C128.93 30.7344 128.742 30.2552 128.367 29.8594C127.997 29.4583 127.534 29.2578 126.977 29.2578C126.289 29.2578 125.75 29.513 125.359 30.0234C124.974 30.5286 124.781 31.237 124.781 32.1484C124.781 32.9349 124.966 33.5651 125.336 34.0391C125.711 34.5078 126.206 34.7422 126.82 34.7422C127.445 34.7422 127.953 34.5182 128.344 34.0703C128.734 33.6172 128.93 33.0391 128.93 32.3359ZM140.211 36H138.398V31.4922C138.398 29.9974 137.87 29.25 136.812 29.25C136.26 29.25 135.805 29.4583 135.445 29.875C135.086 30.2865 134.906 30.8073 134.906 31.4375V36H133.086V28H134.906V29.3281H134.938C135.536 28.3177 136.401 27.8125 137.531 27.8125C138.401 27.8125 139.065 28.0964 139.523 28.6641C139.982 29.2266 140.211 30.0417 140.211 31.1094V36ZM153.812 36H152V34.7344H151.969C151.443 35.7031 150.625 36.1875 149.516 36.1875C147.625 36.1875 146.68 35.0521 146.68 32.7812V28H148.492V32.5938C148.492 34.0312 149.047 34.75 150.156 34.75C150.693 34.75 151.133 34.5521 151.477 34.1562C151.826 33.7604 152 33.2422 152 32.6016V28H153.812V36ZM158.023 34.8203H157.992V39.6797H156.18V28H157.992V29.4062H158.023C158.643 28.3438 159.549 27.8125 160.742 27.8125C161.758 27.8125 162.549 28.1693 163.117 28.8828C163.685 29.5964 163.969 30.5547 163.969 31.7578C163.969 33.0911 163.648 34.1589 163.008 34.9609C162.367 35.763 161.492 36.1641 160.383 36.1641C159.362 36.1641 158.576 35.7161 158.023 34.8203ZM157.977 31.6641V32.6562C157.977 33.2396 158.161 33.7344 158.531 34.1406C158.906 34.5469 159.38 34.75 159.953 34.75C160.625 34.75 161.151 34.4896 161.531 33.9688C161.917 33.4427 162.109 32.7109 162.109 31.7734C162.109 30.987 161.93 30.3724 161.57 29.9297C161.216 29.4818 160.734 29.2578 160.125 29.2578C159.479 29.2578 158.958 29.487 158.562 29.9453C158.172 30.4036 157.977 30.9766 157.977 31.6641Z" fill="white"/>
<defs>
<filter id="filter0_d_21_26" x="0" y="0" width="275" height="69" filterUnits="userSpaceOnUse" color-interpolation-filters="sRGB">
<feFlood flood-opacity="0" result="BackgroundImageFix"/>
<feColorMatrix in="SourceAlpha" type="matrix" values="0 0 0 0 0 0 0 0 0 0 0 0 0 0 0 0 0 0 127 0" result="hardAlpha"/>
<feOffset dy="4"/>
<feGaussianBlur stdDeviation="5"/>
<feComposite in2="hardAlpha" operator="out"/>
<feColorMatrix type="matrix" values="0 0 0 0 0 0 0 0 0 0 0 0 0 0 0 0 0 0 0.2 0"/>
<feBlend mode="normal" in2="BackgroundImageFix" result="effect1_dropShadow_21_26"/>
<feBlend mode="normal" in="SourceGraphic" in2="effect1_dropShadow_21_26" result="shape"/>
</filter>
<linearGradient id="paint0_linear_21_26" x1="137.5" y1="6" x2="137.5" y2="55" gradientUnits="userSpaceOnUse">
<stop stop-color="#BBC5FC"/>
<stop offset="1" stop-color="#9DABF8"/>
</linearGradient>
</defs>
</svg>
